<svg width="289" height="94" viewBox="0 0 289 94" fill="none" xmlns="http://www.w3.org/2000/svg">
<path d="M119.35 88C110.857 88 106.61 81.7467 106.61 69.24C106.61 63.8267 107.66 59.51 109.76 56.29C111.86 53.0233 115.01 51.39 119.21 51.39C121.497 51.39 123.34 51.8567 124.74 52.79C126.187 53.7233 127.307 55.0067 128.1 56.64C128.94 58.2267 129.547 60.07 129.92 62.17L130.13 62.1V40.89C130.13 38.9767 130.69 37.3667 131.81 36.06C132.977 34.7067 134.657 34.03 136.85 34.03C138.997 34.03 140.583 34.7067 141.61 36.06C142.683 37.3667 143.22 39.0233 143.22 41.03V72.53C143.22 74.1167 143.337 75.5867 143.57 76.94C143.85 78.2467 144.06 79.5533 144.2 80.86C144.34 82.6333 143.967 84.1733 143.08 85.48C142.24 86.74 140.723 87.5567 138.53 87.93C135.683 88.3967 133.56 87.9067 132.16 86.46C130.807 85.0133 130.13 82.8667 130.13 80.02V77.43H128.8C128.8 80.8367 127.937 83.45 126.21 85.27C124.53 87.09 122.243 88 119.35 88ZM118.3 68.61C118.3 70.0567 118.743 71.13 119.63 71.83C120.517 72.53 122.103 72.88 124.39 72.88C126.723 72.88 128.333 72.53 129.22 71.83C130.107 71.13 130.55 70.0567 130.55 68.61C130.55 67.1167 130.107 66.0433 129.22 65.39C128.38 64.69 126.793 64.34 124.46 64.34C122.127 64.34 120.517 64.69 119.63 65.39C118.743 66.0433 118.3 67.1167 118.3 68.61ZM147.284 69.8C147.284 66.1133 148.007 62.87 149.454 60.07C150.947 57.27 153.047 55.0767 155.754 53.49C158.507 51.9033 161.774 51.11 165.554 51.11C168.494 51.11 171.13 51.6467 173.464 52.72C175.844 53.7933 177.71 55.24 179.064 57.06C180.417 58.8333 181.094 60.7933 181.094 62.94C181.094 65.18 180.44 66.7667 179.134 67.7C177.827 68.6333 175.89 69.1 173.324 69.1H158.624C158.624 70.3133 159.09 71.3167 160.024 72.11C161.004 72.9033 162.637 73.3 164.924 73.3C166.09 73.3 167.164 73.1833 168.144 72.95C169.17 72.7167 170.197 72.5067 171.224 72.32C172.297 72.0867 173.487 71.97 174.794 71.97C176.66 71.97 178.2 72.6467 179.414 74C180.627 75.3067 181.234 77.1267 181.234 79.46C181.234 82.2133 179.81 84.36 176.964 85.9C174.164 87.44 170.477 88.21 165.904 88.21C162.684 88.21 159.65 87.58 156.804 86.32C154.004 85.06 151.717 83.0767 149.944 80.37C148.17 77.6167 147.284 74.0933 147.284 69.8ZM169.964 66.79C170.664 66.79 170.897 66.4633 170.664 65.81C170.477 65.1567 169.917 64.48 168.984 63.78C168.05 63.08 166.697 62.73 164.924 62.73C162.87 62.73 161.33 63.1733 160.304 64.06C159.324 64.9467 158.834 65.8567 158.834 66.79H169.964ZM202.05 88.91C198.83 88.91 195.843 88.6067 193.09 88C190.383 87.3467 188.213 86.3433 186.58 84.99C184.946 83.59 184.13 81.7467 184.13 79.46C184.13 77.4533 184.736 75.7967 185.95 74.49C187.163 73.1833 188.773 72.53 190.78 72.53C192.04 72.53 193.3 72.74 194.56 73.16C195.866 73.5333 197.243 73.9067 198.69 74.28C200.136 74.6533 201.7 74.84 203.38 74.84C204.873 74.84 205.876 74.77 206.39 74.63C206.903 74.4433 207.16 74.1167 207.16 73.65C207.16 73.09 206.833 72.7167 206.18 72.53C205.573 72.3433 204.523 72.11 203.03 71.83L197.99 70.85C195.89 70.43 193.836 69.8933 191.83 69.24C189.87 68.54 188.236 67.5133 186.93 66.16C185.67 64.8067 185.04 62.9633 185.04 60.63C185.04 57.4567 186.44 54.9833 189.24 53.21C192.086 51.4367 196.193 50.55 201.56 50.55C204.64 50.55 207.393 50.8533 209.82 51.46C212.293 52.0667 214.253 52.9767 215.7 54.19C217.146 55.3567 217.87 56.8267 217.87 58.6C217.916 60.5133 217.403 62.0533 216.33 63.22C215.256 64.3867 213.903 64.97 212.27 64.97C211.103 64.97 209.913 64.83 208.7 64.55C207.533 64.2233 206.25 63.8967 204.85 63.57C203.496 63.1967 201.933 62.9867 200.16 62.94C198.9 62.8467 197.873 62.9167 197.08 63.15C196.286 63.3833 195.89 63.7567 195.89 64.27C195.89 64.83 196.356 65.2267 197.29 65.46C198.223 65.6467 199.623 65.9033 201.49 66.23L206.46 67.14C209.493 67.6533 211.896 68.3067 213.67 69.1C215.49 69.8467 216.796 70.8967 217.59 72.25C218.383 73.6033 218.78 75.47 218.78 77.85C218.78 80.3233 218.056 82.4 216.61 84.08C215.21 85.7133 213.25 86.9267 210.73 87.72C208.21 88.5133 205.316 88.91 202.05 88.91ZM238.102 56.43L248.602 41.59C250.469 38.93 252.499 37.4367 254.692 37.11C256.886 36.7367 258.869 37.25 260.642 38.65C261.809 39.5367 262.579 40.7267 262.952 42.22C263.326 43.7133 263.209 45.3 262.602 46.98C261.996 48.66 260.782 50.2467 258.962 51.74L247.272 61.19V62.66C248.766 62.66 250.516 62.8467 252.522 63.22C254.529 63.5933 256.349 64.4333 257.982 65.74C259.289 66.72 260.409 67.84 261.342 69.1C262.322 70.36 263.092 71.9233 263.652 73.79C264.212 75.61 264.492 77.92 264.492 80.72C264.492 83.0067 263.862 84.85 262.602 86.25C261.389 87.6033 259.569 88.28 257.142 88.28C254.716 88.28 252.849 87.6033 251.542 86.25C250.282 84.85 249.652 83.0067 249.652 80.72C249.652 78.1533 249.232 76.1233 248.392 74.63C247.599 73.09 246.526 71.97 245.172 71.27C243.819 70.57 242.349 70.22 240.762 70.22H237.332V81.21C237.332 83.2167 236.632 84.8733 235.232 86.18C233.879 87.4867 232.129 88.14 229.982 88.14C227.836 88.14 226.062 87.4867 224.662 86.18C223.309 84.8733 222.632 83.2167 222.632 81.21V44.18C222.632 42.1267 223.309 40.4 224.662 39C226.016 37.6 227.789 36.9 229.982 36.9C232.316 36.9 234.112 37.6 235.372 39C236.679 40.3533 237.332 42.0333 237.332 44.04V56.29L238.102 56.43ZM274.959 88.14C272.813 88.14 271.063 87.4867 269.709 86.18C268.356 84.8733 267.679 83.2167 267.679 81.21V44.18C267.679 42.1267 268.333 40.4 269.639 39C270.993 37.6 272.766 36.9 274.959 36.9C277.293 36.9 279.113 37.6 280.419 39C281.773 40.3533 282.449 42.0333 282.449 44.04V81.21C282.449 83.2167 281.726 84.8733 280.279 86.18C278.879 87.4867 277.106 88.14 274.959 88.14Z" fill="#E7EDF4"/>
<path d="M67 35.0001H19C10.1634 35.0001 3 42.1635 3 51.0001V75.0001C3 83.8366 10.1634 91.0001 19 91.0001H67C75.8366 91.0001 83 83.8366 83 75.0001V51.0001C83 42.1635 75.8366 35.0001 67 35.0001Z" stroke="url(#paint0_linear_12581_164959)" stroke-width="5" stroke-linecap="round" stroke-linejoin="round"/>
<path d="M42.9998 19C47.4181 19 50.9998 15.4183 50.9998 11C50.9998 6.58172 47.4181 3 42.9998 3C38.5815 3 34.9998 6.58172 34.9998 11C34.9998 15.4183 38.5815 19 42.9998 19Z" stroke="#F45F63" stroke-width="5" stroke-linecap="round" stroke-linejoin="round"/>
<path d="M43 19V35M31 67V59M55 59V67" stroke="url(#paint1_linear_12581_164959)" stroke-width="5" stroke-linecap="round" stroke-linejoin="round"/>
<defs>
<linearGradient id="paint0_linear_12581_164959" x1="43" y1="35.0001" x2="43" y2="91.0001" gradientUnits="userSpaceOnUse">
<stop stop-color="#F16C70"/>
<stop offset="1" stop-color="#FFBA4A"/>
</linearGradient>
<linearGradient id="paint1_linear_12581_164959" x1="43" y1="19" x2="43" y2="67" gradientUnits="userSpaceOnUse">
<stop stop-color="#F16C70"/>
<stop offset="1" stop-color="#FFBA4A"/>
</linearGradient>
</defs>
</svg>
