<svg width="288" height="94" viewBox="0 0 288 94" fill="none" xmlns="http://www.w3.org/2000/svg">
<path d="M118.35 85C109.857 85 105.61 78.7467 105.61 66.24C105.61 60.8267 106.66 56.51 108.76 53.29C110.86 50.0233 114.01 48.39 118.21 48.39C120.497 48.39 122.34 48.8567 123.74 49.79C125.187 50.7233 126.307 52.0067 127.1 53.64C127.94 55.2267 128.547 57.07 128.92 59.17L129.13 59.1V37.89C129.13 35.9767 129.69 34.3667 130.81 33.06C131.977 31.7067 133.657 31.03 135.85 31.03C137.997 31.03 139.583 31.7067 140.61 33.06C141.683 34.3667 142.22 36.0233 142.22 38.03V69.53C142.22 71.1167 142.337 72.5867 142.57 73.94C142.85 75.2467 143.06 76.5533 143.2 77.86C143.34 79.6333 142.967 81.1733 142.08 82.48C141.24 83.74 139.723 84.5567 137.53 84.93C134.683 85.3967 132.56 84.9067 131.16 83.46C129.807 82.0133 129.13 79.8667 129.13 77.02V74.43H127.8C127.8 77.8367 126.937 80.45 125.21 82.27C123.53 84.09 121.243 85 118.35 85ZM117.3 65.61C117.3 67.0567 117.743 68.13 118.63 68.83C119.517 69.53 121.103 69.88 123.39 69.88C125.723 69.88 127.333 69.53 128.22 68.83C129.107 68.13 129.55 67.0567 129.55 65.61C129.55 64.1167 129.107 63.0433 128.22 62.39C127.38 61.69 125.793 61.34 123.46 61.34C121.127 61.34 119.517 61.69 118.63 62.39C117.743 63.0433 117.3 64.1167 117.3 65.61ZM146.284 66.8C146.284 63.1133 147.007 59.87 148.454 57.07C149.947 54.27 152.047 52.0767 154.754 50.49C157.507 48.9033 160.774 48.11 164.554 48.11C167.494 48.11 170.13 48.6467 172.464 49.72C174.844 50.7933 176.71 52.24 178.064 54.06C179.417 55.8333 180.094 57.7933 180.094 59.94C180.094 62.18 179.44 63.7667 178.134 64.7C176.827 65.6333 174.89 66.1 172.324 66.1H157.624C157.624 67.3133 158.09 68.3167 159.024 69.11C160.004 69.9033 161.637 70.3 163.924 70.3C165.09 70.3 166.164 70.1833 167.144 69.95C168.17 69.7167 169.197 69.5067 170.224 69.32C171.297 69.0867 172.487 68.97 173.794 68.97C175.66 68.97 177.2 69.6467 178.414 71C179.627 72.3067 180.234 74.1267 180.234 76.46C180.234 79.2133 178.81 81.36 175.964 82.9C173.164 84.44 169.477 85.21 164.904 85.21C161.684 85.21 158.65 84.58 155.804 83.32C153.004 82.06 150.717 80.0767 148.944 77.37C147.17 74.6167 146.284 71.0933 146.284 66.8ZM168.964 63.79C169.664 63.79 169.897 63.4633 169.664 62.81C169.477 62.1567 168.917 61.48 167.984 60.78C167.05 60.08 165.697 59.73 163.924 59.73C161.87 59.73 160.33 60.1733 159.304 61.06C158.324 61.9467 157.834 62.8567 157.834 63.79H168.964ZM201.05 85.91C197.83 85.91 194.843 85.6067 192.09 85C189.383 84.3467 187.213 83.3433 185.58 81.99C183.946 80.59 183.13 78.7467 183.13 76.46C183.13 74.4533 183.736 72.7967 184.95 71.49C186.163 70.1833 187.773 69.53 189.78 69.53C191.04 69.53 192.3 69.74 193.56 70.16C194.866 70.5333 196.243 70.9067 197.69 71.28C199.136 71.6533 200.7 71.84 202.38 71.84C203.873 71.84 204.876 71.77 205.39 71.63C205.903 71.4433 206.16 71.1167 206.16 70.65C206.16 70.09 205.833 69.7167 205.18 69.53C204.573 69.3433 203.523 69.11 202.03 68.83L196.99 67.85C194.89 67.43 192.836 66.8933 190.83 66.24C188.87 65.54 187.236 64.5133 185.93 63.16C184.67 61.8067 184.04 59.9633 184.04 57.63C184.04 54.4567 185.44 51.9833 188.24 50.21C191.086 48.4367 195.193 47.55 200.56 47.55C203.64 47.55 206.393 47.8533 208.82 48.46C211.293 49.0667 213.253 49.9767 214.7 51.19C216.146 52.3567 216.87 53.8267 216.87 55.6C216.916 57.5133 216.403 59.0533 215.33 60.22C214.256 61.3867 212.903 61.97 211.27 61.97C210.103 61.97 208.913 61.83 207.7 61.55C206.533 61.2233 205.25 60.8967 203.85 60.57C202.496 60.1967 200.933 59.9867 199.16 59.94C197.9 59.8467 196.873 59.9167 196.08 60.15C195.286 60.3833 194.89 60.7567 194.89 61.27C194.89 61.83 195.356 62.2267 196.29 62.46C197.223 62.6467 198.623 62.9033 200.49 63.23L205.46 64.14C208.493 64.6533 210.896 65.3067 212.67 66.1C214.49 66.8467 215.796 67.8967 216.59 69.25C217.383 70.6033 217.78 72.47 217.78 74.85C217.78 77.3233 217.056 79.4 215.61 81.08C214.21 82.7133 212.25 83.9267 209.73 84.72C207.21 85.5133 204.316 85.91 201.05 85.91ZM237.102 53.43L247.602 38.59C249.469 35.93 251.499 34.4367 253.692 34.11C255.886 33.7367 257.869 34.25 259.642 35.65C260.809 36.5367 261.579 37.7267 261.952 39.22C262.326 40.7133 262.209 42.3 261.602 43.98C260.996 45.66 259.782 47.2467 257.962 48.74L246.272 58.19V59.66C247.766 59.66 249.516 59.8467 251.522 60.22C253.529 60.5933 255.349 61.4333 256.982 62.74C258.289 63.72 259.409 64.84 260.342 66.1C261.322 67.36 262.092 68.9233 262.652 70.79C263.212 72.61 263.492 74.92 263.492 77.72C263.492 80.0067 262.862 81.85 261.602 83.25C260.389 84.6033 258.569 85.28 256.142 85.28C253.716 85.28 251.849 84.6033 250.542 83.25C249.282 81.85 248.652 80.0067 248.652 77.72C248.652 75.1533 248.232 73.1233 247.392 71.63C246.599 70.09 245.526 68.97 244.172 68.27C242.819 67.57 241.349 67.22 239.762 67.22H236.332V78.21C236.332 80.2167 235.632 81.8733 234.232 83.18C232.879 84.4867 231.129 85.14 228.982 85.14C226.836 85.14 225.062 84.4867 223.662 83.18C222.309 81.8733 221.632 80.2167 221.632 78.21V41.18C221.632 39.1267 222.309 37.4 223.662 36C225.016 34.6 226.789 33.9 228.982 33.9C231.316 33.9 233.112 34.6 234.372 36C235.679 37.3533 236.332 39.0333 236.332 41.04V53.29L237.102 53.43ZM273.959 85.14C271.813 85.14 270.063 84.4867 268.709 83.18C267.356 81.8733 266.679 80.2167 266.679 78.21V41.18C266.679 39.1267 267.333 37.4 268.639 36C269.993 34.6 271.766 33.9 273.959 33.9C276.293 33.9 278.113 34.6 279.419 36C280.773 37.3533 281.449 39.0333 281.449 41.04V78.21C281.449 80.2167 280.726 81.8733 279.279 83.18C277.879 84.4867 276.106 85.14 273.959 85.14Z" fill="#002C54"/>
<path d="M67 35.0001H19C10.1634 35.0001 3 42.1635 3 51.0001V75.0001C3 83.8366 10.1634 91.0001 19 91.0001H67C75.8366 91.0001 83 83.8366 83 75.0001V51.0001C83 42.1635 75.8366 35.0001 67 35.0001Z" stroke="url(#paint0_linear_12579_164933)" stroke-width="5" stroke-linecap="round" stroke-linejoin="round"/>
<path d="M42.9995 19C47.4178 19 50.9995 15.4183 50.9995 11C50.9995 6.58172 47.4178 3 42.9995 3C38.5812 3 34.9995 6.58172 34.9995 11C34.9995 15.4183 38.5812 19 42.9995 19Z" stroke="#F45F63" stroke-width="5" stroke-linecap="round" stroke-linejoin="round"/>
<path d="M43.0005 19V35M31.0005 67V59M55.0005 59V67" stroke="url(#paint1_linear_12579_164933)" stroke-width="5" stroke-linecap="round" stroke-linejoin="round"/>
<defs>
<linearGradient id="paint0_linear_12579_164933" x1="43" y1="35.0001" x2="43" y2="91.0001" gradientUnits="userSpaceOnUse">
<stop stop-color="#F45F63"/>
<stop offset="1" stop-color="#EA9B1B"/>
</linearGradient>
<linearGradient id="paint1_linear_12579_164933" x1="43.0005" y1="19" x2="43.0005" y2="67" gradientUnits="userSpaceOnUse">
<stop stop-color="#F45F63"/>
<stop offset="1" stop-color="#EA9B1B"/>
</linearGradient>
</defs>
</svg>
